<?xml version="1.0" encoding="UTF-8" standalone="no"?>
<!DOCTYPE svg PUBLIC "-//W3C//DTD SVG 1.1//EN" "http://www.w3.org/Graphics/SVG/1.1/DTD/svg11.dtd">
<svg width="100%" height="100%" viewBox="0 0 110 57" version="1.1" xmlns="http://www.w3.org/2000/svg" xmlns:xlink="http://www.w3.org/1999/xlink" xml:space="preserve" xmlns:serif="http://www.serif.com/" style="fill-rule:evenodd;clip-rule:evenodd;stroke-linejoin:round;stroke-miterlimit:2;">
    <g transform="matrix(1,0,0,1,0.313956,6.5365)">
        <g>
            <g>
                <g>
                    <g>
                        <path d="M0.245,10.688C-0.809,16.265 1.528,21.191 7.439,21.191C8.309,21.191 9.18,21.098 10.097,20.866C10.234,23.654 11.655,24.63 14.404,24.63L16.879,24.49L17.795,19.797C17.245,19.937 16.695,20.029 16.145,20.029C15.412,20.029 14.358,19.889 14.405,18.96C17.383,17.24 19.124,13.755 19.72,10.688C20.865,4.648 18.39,0 12.113,0C9.135,0 6.614,0.836 4.232,3.16C1.986,5.251 0.749,7.993 0.245,10.688ZM8.905,16.544C5.744,16.544 6.569,12.826 7.027,10.549C7.439,8.319 8.081,4.647 11.105,4.647C12.617,4.647 13.167,5.577 13.259,6.924C13.304,8.132 13.075,9.852 12.846,11.06C12.434,13.244 11.792,16.544 8.906,16.544L8.905,16.544ZM28.151,20.912L28.609,18.402L28.563,18.402C27.555,20.401 25.402,21.191 23.477,21.191C22.24,21.191 21.094,20.912 20.315,20.029C19.445,18.96 19.582,17.613 19.857,16.172L21.92,5.577L27.785,5.577L25.998,14.824C25.815,15.8 25.586,16.869 26.915,16.869C27.511,16.869 28.106,16.544 28.473,15.986C28.839,15.475 28.977,14.917 29.069,14.36L30.764,5.53L36.629,5.53L33.697,20.912L28.15,20.912L28.151,20.912ZM44.372,4.043L38.507,4.043L39.286,0L45.151,0L44.372,4.043ZM41.165,20.912L35.299,20.912L38.232,5.577L44.097,5.577L41.165,20.912ZM58.395,15.15C57.111,19.1 53.903,21.237 50.055,21.237C47.855,21.237 46.205,20.727 44.922,19.147C43.685,17.567 43.364,15.521 43.777,13.337C44.647,8.737 48.451,5.344 53.079,5.344C56.79,5.344 59.356,7.574 59.036,11.385L53.766,11.85L53.766,11.71C53.766,10.642 53.766,9.48 52.437,9.48C50.558,9.48 50.1,11.99 49.825,13.337C49.55,14.777 49.138,17.101 51.062,17.101C52.345,17.101 53.032,15.94 53.399,14.824L58.394,15.15L58.395,15.15ZM71.637,10.874L74.799,20.912L68.659,20.912L67.009,14.778L65.176,16.683L64.351,20.912L58.486,20.912L62.426,0.325L68.292,0.325L66.184,11.432L67.742,9.712L72.095,5.577L77.181,5.577L71.637,10.874ZM86.603,15.382C86.099,16.683 85.274,17.241 83.945,17.241C82.158,17.241 81.791,16.033 82.204,14.406L92.33,14.406L92.467,13.616C93.429,8.597 91.001,5.298 85.96,5.298C83.807,5.298 81.332,6.041 79.5,7.668C77.804,9.155 76.567,11.385 76.154,13.43C75.742,15.614 76.2,17.706 77.529,19.193C78.949,20.726 81.011,21.191 83.211,21.191C86.785,21.191 90.359,19.471 92.009,15.754L86.602,15.382L86.603,15.382ZM82.753,11.432C82.983,10.038 83.808,8.83 85.366,8.83C87.016,8.83 87.29,9.945 87.016,11.432L82.753,11.432ZM100.945,5.577L100.533,7.714L100.579,7.714C101.633,5.994 103.511,5.251 105.344,5.251C106.764,5.251 108.323,5.669 108.964,6.878C109.652,8.132 109.331,9.898 109.01,11.478L107.223,20.912L101.358,20.912L103.191,11.618C103.374,10.688 103.603,9.388 102.366,9.388C100.716,9.388 100.304,10.781 100.075,12.036L98.379,20.866L92.514,20.866L95.447,5.576L100.945,5.576L100.945,5.577ZM100.307,28.717C100.536,28.717 100.857,28.764 100.857,28.485C100.857,28.252 100.673,28.252 100.49,28.252L100.077,28.252L100.077,28.717L100.307,28.717ZM101.086,29.693L100.811,29.693L100.352,28.949L100.077,28.949L100.077,29.693L99.848,29.693L99.848,28.067L100.582,28.067C100.719,28.067 100.856,28.067 100.994,28.159C101.115,28.243 101.185,28.384 101.177,28.531C101.177,28.857 100.948,28.949 100.673,28.996L101.086,29.693ZM99.161,28.857C99.161,29.507 99.711,30.018 100.352,30.018C100.994,30.018 101.544,29.508 101.544,28.857C101.544,28.206 100.994,27.695 100.352,27.695C99.665,27.695 99.161,28.205 99.161,28.857ZM98.886,28.857C98.886,28.067 99.528,27.416 100.352,27.416C101.177,27.416 101.819,28.066 101.819,28.856C101.819,29.646 101.177,30.297 100.352,30.297C99.528,30.297 98.886,29.647 98.886,28.857Z" style="fill:rgb(181,18,27);fill-rule:nonzero;"/>
                    </g>
                    <g transform="matrix(1,0,0,1,16.552,22.922)">
                        <path d="M14.25,20.68L0,20.68L3.94,0L10.218,0L7.24,15.614L15.213,15.614L14.25,20.68ZM25.844,4.972C30.61,4.972 33.542,8.179 32.626,13.105C31.709,17.752 27.402,20.959 22.774,20.959C18.146,20.959 15.076,17.752 15.946,13.105C16.909,8.179 21.078,4.972 25.844,4.972ZM25.111,8.737C23.095,8.737 22.545,11.432 22.27,12.873C21.445,17.008 22.407,17.287 23.461,17.287L23.537,17.287C24.565,17.27 25.587,16.865 26.348,12.873C26.668,11.432 27.128,8.737 25.111,8.737ZM42.982,4.972C44.769,4.972 47.014,5.252 48.297,6.32C50.038,7.714 49.397,9.712 48.985,11.897L47.976,17.287C47.747,18.449 47.564,19.611 47.793,20.68L47.784,20.632L42.065,20.633C42.027,20.053 42.085,19.471 42.185,18.863L42.249,18.496C40.736,20.308 38.904,20.959 36.842,20.959C34.046,20.959 31.847,19.379 32.442,16.311C32.947,13.895 35.1,12.268 37.346,11.618C39.362,11.014 41.47,10.781 43.486,10.642L43.532,10.502C43.807,9.155 43.532,8.597 42.112,8.597C40.92,8.597 39.866,9.015 39.453,10.317L34.138,9.805C35.788,5.948 39.591,4.972 42.982,4.972ZM42.982,13.477C41.562,13.617 39.087,14.081 38.72,15.94C38.537,16.916 39.087,17.334 40.003,17.334C42.203,17.334 42.615,15.428 42.936,13.755L42.982,13.477ZM57.92,5.344L57.508,7.528L57.553,7.528C58.607,5.762 60.486,5.065 62.319,5.065C63.739,5.065 65.297,5.484 65.985,6.645C66.672,7.9 66.351,9.666 66.031,11.246L64.198,20.726L58.332,20.726L60.119,11.386C60.303,10.456 60.532,9.155 59.295,9.155C57.691,9.155 57.233,10.549 57.004,11.804L55.308,20.68L49.443,20.68L52.375,5.298L57.92,5.298L57.92,5.344ZM70.475,15.66C70.521,17.148 72.125,17.334 73.408,17.334C74.004,17.334 75.653,17.287 75.837,16.358C75.974,15.568 74.004,15.428 73.454,15.382C70.384,14.917 66.718,14.313 67.497,10.224C67.817,8.458 69.009,7.11 70.613,6.181C72.263,5.251 74.003,5.019 75.699,5.019C78.54,5.019 81.335,6.134 81.794,9.015L77.166,9.898C76.936,8.83 75.836,8.551 74.783,8.551C74.325,8.551 72.858,8.691 72.721,9.341C72.629,9.805 73.087,10.038 73.454,10.131C74.05,10.317 75.241,10.41 75.928,10.502C77.258,10.688 78.769,10.874 79.823,11.664C81.06,12.547 81.519,13.941 81.198,15.568C80.373,19.797 75.745,21.005 72.308,21.005C68.918,21.005 66.031,19.89 65.572,16.311L70.475,15.661L70.475,15.66Z" style="fill:rgb(181,18,27);fill-rule:nonzero;"/>
                    </g>
                </g>
            </g>
        </g>
    </g>
</svg>
